<svg id="圖層_2" data-name="圖層 2" xmlns="http://www.w3.org/2000/svg" viewBox="0 0 24 24"><defs><style>.cls-1{fill:none;}.cls-2{fill:#1e70a3;}.cls-3{fill:#ffc41a;}.cls-4{fill:#fff;}</style></defs><title>GPGPU</title><rect class="cls-1" width="24" height="24"/><path class="cls-2" d="M4.2015,12.6032h6.2759a1.06,1.06,0,0,1,1.06,1.06v6.276A1.0611,1.0611,0,0,1,10.4759,21H4.2015A1.0611,1.0611,0,0,1,3.14,19.9389V13.6643A1.0611,1.0611,0,0,1,4.2015,12.6032Z"/><rect class="cls-2" x="12.4411" y="12.6032" width="8.3967" height="8.3968" rx="1.0611"/><rect class="cls-3" x="3.1353" y="3" width="8.3968" height="8.3968" rx="1.0611"/><rect class="cls-2" x="5.2121" y="7.7923" width="4.2432" height="1.1905"/><rect class="cls-2" x="5.2135" y="5.4139" width="4.2418" height="1.1906"/><rect class="cls-2" x="12.4679" y="3" width="8.3968" height="8.3968" rx="1.0611"/><rect class="cls-4" x="14.5447" y="7.7923" width="4.2432" height="1.1905"/><rect class="cls-4" x="14.5462" y="5.4139" width="4.2418" height="1.1906"/><rect class="cls-4" x="5.2172" y="17.3955" width="4.2418" height="1.1905"/><rect class="cls-4" x="5.2172" y="15.017" width="4.2418" height="1.1906"/><rect class="cls-4" x="14.5178" y="17.3955" width="4.2432" height="1.1905"/><rect class="cls-4" x="14.5178" y="15.017" width="4.2432" height="1.1906"/></svg>