<?xml version="1.0" encoding="UTF-8"?> <svg xmlns="http://www.w3.org/2000/svg" id="圖層_1" data-name="圖層 1" viewBox="0 0 1744.9 623.99"><defs><style>.cls-1{fill:#1e80c5;}</style></defs><title>未命名-1</title><path class="cls-1" d="M1479.08,1021.5h-19.56v-13.83h56v13.83H1495.6v59h-16.52Z" transform="translate(-142.49 -694.21)"></path><path class="cls-1" d="M1538.86,1061.81l-5.18,18.69h-17.07l22.25-72.83h21.62l22.57,72.83h-17.71l-5.62-18.69Zm18.47-12.32L1552.8,1034c-1.29-4.32-2.59-9.73-3.68-14h-.21c-1.08,4.32-2.15,9.84-3.35,14l-4.32,15.45Z" transform="translate(-142.49 -694.21)"></path><path class="cls-1" d="M1614.75,1007.67v72.83h-16.53v-72.83Z" transform="translate(-142.49 -694.21)"></path><path class="cls-1" d="M1646.21,1080.5l-17.29-72.83h17.61l5.52,30c1.62,8.64,3.13,18,4.31,25.39h.22c1.18-7.89,2.91-16.64,4.75-25.6l6.17-29.83H1685l5.83,30.69c1.62,8.54,2.82,16.32,3.89,24.42h.22c1.07-8.1,2.69-16.64,4.2-25.28l5.95-29.83h16.75L1703,1080.5h-17.82l-6.17-31.34c-1.4-7.34-2.58-14.15-3.45-22.47h-.22c-1.3,8.21-2.48,15.13-4.21,22.47l-6.91,31.34Z" transform="translate(-142.49 -694.21)"></path><path class="cls-1" d="M1747,1061.81l-5.18,18.69h-17.07l22.25-72.83h21.62l22.57,72.83h-17.71l-5.62-18.69Zm18.48-12.32L1760.9,1034c-1.29-4.32-2.58-9.73-3.67-14H1757c-1.08,4.32-2.15,9.84-3.35,14l-4.31,15.45Z" transform="translate(-142.49 -694.21)"></path><path class="cls-1" d="M1806.33,1080.5v-72.83h19.23l15.12,26.69a212,212,0,0,1,11.89,25h.32a272.73,272.73,0,0,1-1.4-30.36v-21.29h15.13v72.83h-17.29l-15.56-28.09a274.12,274.12,0,0,1-12.65-25.72l-.32.11c.43,9.62.65,19.88.65,31.76v21.94Z" transform="translate(-142.49 -694.21)"></path><path class="cls-1" d="M1476.8,1198l-17.28-72.82h17.61l5.51,30c1.62,8.65,3.13,18,4.32,25.4h.22c1.18-7.89,2.91-16.65,4.75-25.61l6.16-29.82h17.51l5.82,30.69c1.62,8.53,2.82,16.31,3.9,24.42h.22c1.07-8.11,2.69-16.65,4.2-25.29l6-29.82h16.74l-18.8,72.82H1515.8l-6.15-31.33c-1.4-7.35-2.59-14.15-3.46-22.48H1506c-1.29,8.22-2.47,15.13-4.2,22.48l-6.92,31.33Z" transform="translate(-142.49 -694.21)"></path><path class="cls-1" d="M1609.77,1167.22H1583v17.29h29.94V1198h-46.46v-72.82h45v13.51H1583v15.12h26.81Z" transform="translate(-142.49 -694.21)"></path><path class="cls-1" d="M1629.57,1126.16c4.32-.86,13.07-1.51,21.29-1.51,10.05,0,16.2,1,21.5,4.1a15.88,15.88,0,0,1,8.75,14.27c0,6.48-3.79,12.53-12,15.56v.21c8.31,2.27,14.48,8.53,14.48,17.94a19.44,19.44,0,0,1-7.57,15.45c-5.29,4.21-14.16,6.59-28.63,6.59a127.5,127.5,0,0,1-17.83-1.08Zm16.31,27.88h5.4c8.65,0,13.3-3.57,13.3-9s-4.22-8.43-11.68-8.43a44.34,44.34,0,0,0-7,.44Zm0,32.3a51.2,51.2,0,0,0,6.38.22c7.45,0,14-2.81,14-10.48,0-7.35-6.6-10.27-14.81-10.27h-5.62Z" transform="translate(-142.49 -694.21)"></path><path class="cls-1" d="M1465.57,1298.57a42.12,42.12,0,0,0,18.26,4.53c7.57,0,11.55-3.13,11.55-7.89,0-4.53-3.45-7.13-12.21-10.26-12.1-4.22-20-10.91-20-21.5,0-12.43,10.37-21.93,27.55-21.93a44.64,44.64,0,0,1,18.58,3.67l-3.67,13.29a34.67,34.67,0,0,0-15.23-3.46c-7.14,0-10.59,3.24-10.59,7,0,4.65,4.11,6.7,13.51,10.27,12.85,4.75,18.91,11.45,18.91,21.72,0,12.21-9.41,22.58-29.39,22.58-8.33,0-16.54-2.17-20.64-4.43Z" transform="translate(-142.49 -694.21)"></path><path class="cls-1" d="M1572.14,1284.74h-26.8V1302h29.93v13.51h-46.45V1242.7h44.94v13.51h-28.42v15.12h26.8Z" transform="translate(-142.49 -694.21)"></path><path class="cls-1" d="M1592,1243.67a145.25,145.25,0,0,1,21.93-1.51c10.81,0,18.37,1.62,23.56,5.73,4.32,3.45,6.7,8.53,6.7,15.24,0,9.29-6.59,15.66-12.87,17.93v.32c5.08,2.06,7.9,6.91,9.74,13.62,2.26,8.21,4.53,17.72,5.93,20.53h-16.85c-1.2-2.06-2.91-8-5.08-17-1.94-9.08-5.07-11.57-11.77-11.68h-5v28.64H1592Zm16.31,31.34h6.49c8.21,0,13.07-4.1,13.07-10.48,0-6.7-4.54-10-12.1-10.16a40.71,40.71,0,0,0-7.46.54Z" transform="translate(-142.49 -694.21)"></path><path class="cls-1" d="M1678,1315.53l-23.34-72.83h18l8.86,30.8c2.48,8.64,4.75,17,6.48,26h.32c1.84-8.75,4.11-17.4,6.59-25.72l9.3-31.12h17.5l-24.52,72.83Z" transform="translate(-142.49 -694.21)"></path><path class="cls-1" d="M1751.51,1242.7v72.83H1735V1242.7Z" transform="translate(-142.49 -694.21)"></path><path class="cls-1" d="M1824.68,1313.47c-3,1.52-9.83,3.14-18.69,3.14-25.19,0-38.14-15.67-38.14-36.41,0-24.85,17.72-38.68,39.76-38.68,8.53,0,15,1.73,17.92,3.24l-3.34,13.07a35.45,35.45,0,0,0-13.83-2.7c-13.07,0-23.23,7.89-23.23,24.09,0,14.59,8.65,23.78,23.33,23.78a41.08,41.08,0,0,0,13.73-2.39Z" transform="translate(-142.49 -694.21)"></path><path class="cls-1" d="M1884.26,1284.74h-26.81V1302h29.94v13.51h-46.46V1242.7h45v13.51h-28.43v15.12h26.81Z" transform="translate(-142.49 -694.21)"></path><path class="cls-1" d="M534.8,1065.45H451.89v-58.63H689.17v58.63H604.88v250.1H534.8Z" transform="translate(-142.49 -694.21)"></path><path class="cls-1" d="M789,1315.55l-73.3-308.73h74.67l23.36,127.34c6.88,36.64,13.29,76.5,18.32,107.64H833c5-33.44,12.37-70.54,20.16-108.56l26.11-126.42h74.2l24.74,130.08c6.87,36.19,11.91,69.17,16.49,103.53h.92c4.58-34.36,11.44-70.54,17.86-107.19l25.19-126.42h71l-79.7,308.73H954.36l-26.11-132.84c-6-31.15-11-60-14.66-95.28h-.92c-5.49,34.82-10.53,64.13-17.86,95.28l-29.32,132.84Z" transform="translate(-142.49 -694.21)"></path><path class="cls-1" d="M1392.35,1060.05h-161.1a41.44,41.44,0,0,0-26.73,9.2q-11.44,9.23-11.45,28,0,10.41,3,17.41a30.07,30.07,0,0,0,8.4,11.41,33.75,33.75,0,0,0,12.22,6.4,51.39,51.39,0,0,0,14.51,2h92a97.65,97.65,0,0,1,26.54,4.21,78.58,78.58,0,0,1,27.67,14.61q13,10.41,21.77,28.21t8.78,45q0,27.23-8.78,44.82t-21.77,28a78.58,78.58,0,0,1-27.67,14.61,97.61,97.61,0,0,1-26.54,4.2H1120.87V1265h173.37a38.19,38.19,0,0,0,15.08-3,39.61,39.61,0,0,0,12.22-8,37.34,37.34,0,0,0,8.2-12,38.09,38.09,0,0,0,3.06-15.41q0-16.82-11.26-27.62a38,38,0,0,0-27.3-10.8h-91.63a103,103,0,0,1-26.91-4,77.28,77.28,0,0,1-27.68-14.21q-13-10.2-21.76-27.81t-8.78-44.83q0-27.21,8.78-44.62T1148,1025a77.44,77.44,0,0,1,27.68-14.21,103.42,103.42,0,0,1,26.91-4h189.74Z" transform="translate(-142.49 -694.21)"></path><path class="cls-1" d="M1054.59,955.1c.06-.5,5.31-50.73-10.86-106.52-14.25-49.14-48.44-112.32-130.14-140.78-1.53-.53-3-1-4.59-1.56-2.33-.76-4.69-1.5-7.1-2.21l-1.92-.56c-.57-.16-1.24-.39-1.8-.55-4.3-1.19-8.13-2.11-11.22-2.78-95.64-18.22-180.64,5.6-252.66,71.05A194.42,194.42,0,0,0,614.91,792c-1.9,2.32-2.77,2.75-6.89,1.75-90.51-22.06-167.72-.54-229.52,63.93-21.67,22.62-37.22,50.84-46.2,83.89-.93,3.44-.93,3.44-3.76,3.3-71.72-3.55-134.87,34.15-164.79,98.41-33.11,71.1-27.52,138.65,16.61,200.79,34,47.86,81.63,72.1,141.63,72.09,1.9,0,3.82,0,5.75-.07,19.06-.48,38.49-.39,57.28-.31,7.61,0,15.28.16,22.83.07h79.91v-53.45h-4.55c-47.17.06-117.28.14-164.46.09A111.46,111.46,0,0,1,248,1237.86c-51.75-41-66.34-116.37-33.94-175.23,28.5-51.75,83.91-75.73,137.88-59.68,4.15,1.24,8.4,2.28,12.89,3.39,2.21.54,4.52,1.11,7,1.73l5.54,1.42.13-5.72c1.46-65.08,29.29-113.15,82.71-142.87C512.15,832,568.52,831,627.69,858l3.34,1.53,2.2-2.95c2.23-3,4.4-6,6.54-9,4.53-6.3,8.81-12.25,13.51-17.92,75.58-91.25,214.85-108.81,310.44-39.15,50.86,37.06,80.1,85.5,86.91,144,.57,4.93.89,10.2,1,16.61l.08,4.47h3l-.19-.15Z" transform="translate(-142.49 -694.21)"></path></svg> 