<svg xmlns="http://www.w3.org/2000/svg" width="24" height="24" viewBox="0 0 24 24">
  <g id="S3_icon" transform="translate(-1150 -223)">
    <rect id="Bounds" width="24" height="24" transform="translate(1150 223)" fill="#07263b" opacity="0.004"/>
    <g id="Group_1213" data-name="Group 1213" transform="translate(1151 228)">
      <path id="Subtraction_5" data-name="Subtraction 5" d="M9.5,8H5.451A2.617,2.617,0,0,0,5.5,7.5,3.283,3.283,0,0,0,2,4.5a3.892,3.892,0,0,0-2,.538C0,5.025,0,5.013,0,5a2.988,2.988,0,0,1,2.676-2.98,3.745,3.745,0,0,1,7,1A2.493,2.493,0,0,1,9.5,8Z" transform="translate(10)" fill="#92c426"/>
      <g id="Group_1209" data-name="Group 1209">
        <path id="Subtraction_6" data-name="Subtraction 6" d="M11,14H5A5.136,5.136,0,0,1,0,8.75,5.384,5.384,0,0,1,1.289,5.234a4.9,4.9,0,0,1,3.17-1.7A6.2,6.2,0,0,1,10,0a6.342,6.342,0,0,1,6.125,5.285,4.087,4.087,0,0,1,2.75,1.363A4.44,4.44,0,0,1,20,9.625,4.279,4.279,0,0,1,15.834,14H13V10h3L12,6,8,10h3v4Z" fill="#3aaac4"/>
      </g>
    </g>
  </g>
</svg>
