<svg id="圖層_1" data-name="圖層 1" xmlns="http://www.w3.org/2000/svg" viewBox="0 0 425.1969 75.6547"><defs><style>.cls-1{fill:#27a5bd;}.cls-2,.cls-3{fill:none;}.cls-3{stroke:#27a5bd;stroke-miterlimit:10;stroke-width:0.9909px;}</style></defs><title>綠</title><path class="cls-1" d="M779.8109,355.0069h-4.3345v-2.2177h11.3312v2.2177h-4.3338v12.6419h-2.6629Z" transform="translate(-470.1732 -347.6591)"/><path class="cls-1" d="M791.3361,352.7892h3.122l4.8939,14.86h-2.8188l-2.2865-7.9069c-.4772-1.5723-.9183-3.2674-1.3593-4.8988h-.0918c-.4132,1.6452-.8536,3.3265-1.3314,4.8988l-2.3047,7.9069h-2.7179Zm-2.002,8.7659h7.07v2.0676h-7.07Z" transform="translate(-470.1732 -347.6591)"/><path class="cls-1" d="M801.0714,352.7892h2.6629v14.86h-2.6629Z" transform="translate(-470.1732 -347.6591)"/><path class="cls-1" d="M806.0486,352.7892h2.7367l1.3036,7.5069c.2431,1.5816.5,3.1631.7436,4.7443h.0919c.3123-1.5812.6427-3.1765.9732-4.7443l1.8462-7.5069h2.3137l1.8455,7.5069c.33,1.5406.6615,3.1493.9919,4.7443h.0919c.2431-1.595.4817-3.19.7255-4.7443l1.3037-7.5069h2.5529l-2.8834,14.86h-3.2966l-1.8643-7.825c-.2476-1.1543-.4682-2.29-.6609-3.4175h-.0918c-.2063,1.1271-.4313,2.2632-.68,3.4175l-1.8177,7.825h-3.2417Z" transform="translate(-470.1732 -347.6591)"/><path class="cls-1" d="M828.8507,352.7892h3.122l4.8939,14.86h-2.8188l-2.2865-7.9069c-.4772-1.5723-.9182-3.2674-1.3593-4.8988H830.31c-.4132,1.6452-.8536,3.3265-1.3314,4.8988l-2.3047,7.9069h-2.7178Zm-2.002,8.7659h7.0705v2.0676h-7.0705Z" transform="translate(-470.1732 -347.6591)"/><path class="cls-1" d="M838.586,352.7892h2.736l4.6649,8.3524,1.5519,3.1717h.0919c-.1287-1.5358-.34-3.4171-.34-5.0713v-6.4528h2.5342v14.86h-2.7359l-4.6649-8.3658-1.552-3.1583H840.78c.1287,1.5723.34,3.3628.34,5.0169v6.5072H838.586Z" transform="translate(-470.1732 -347.6591)"/><path class="cls-1" d="M775.9905,387.5378c0-4.8623,3.0761-7.7524,6.8778-7.7524a5.9933,5.9933,0,0,1,4.3247,1.8814l-1.4232,1.7a3.9361,3.9361,0,0,0-2.8466-1.2906c-2.4424,0-4.1961,2.0449-4.1961,5.38,0,3.39,1.616,5.4438,4.1321,5.4438a4.2421,4.2421,0,0,0,3.2048-1.5268l1.4233,1.6541a6.0141,6.0141,0,0,1-4.729,2.163C778.9845,395.19,775.9905,392.4548,775.9905,387.5378Z" transform="translate(-470.1732 -347.6591)"/><path class="cls-1" d="M788.4572,387.4287c0-4.8076,2.7089-7.6433,6.6211-7.6433s6.62,2.8491,6.62,7.6433c0,4.8079-2.7088,7.7616-6.62,7.7616S788.4572,392.2366,788.4572,387.4287Zm10.5048,0c0-3.3352-1.5241-5.3529-3.8837-5.3529s-3.8844,2.0177-3.8844,5.3529,1.5241,5.4713,3.8844,5.4713S798.962,390.7642,798.962,387.4287Z" transform="translate(-470.1732 -347.6591)"/><path class="cls-1" d="M804.7217,380.0581h3.0115l2.6538,7.2618c.33.945.6337,1.9447.9642,2.9172h.0918c.33-.9725.6149-1.9722.946-2.9172l2.5983-7.2618h3.012v14.86H815.557V388.12c0-1.3722.2108-3.3493.3394-4.726h-.0918l-1.2118,3.4536-2.47,6.6755h-1.58l-2.4792-6.6755-1.1937-3.4536h-.0918c.1286,1.3767.34,3.3538.34,4.726v6.7981h-2.3965Z" transform="translate(-470.1732 -347.6591)"/><path class="cls-1" d="M821.8262,380.0581h4.7289c3.3329,0,5.803,1.145,5.803,4.5807,0,3.3125-2.4792,4.8168-5.7111,4.8168h-2.1579v5.4621h-2.6629Zm4.6,7.289c2.2406,0,3.3056-.8817,3.3056-2.7083,0-1.8452-1.1665-2.4721-3.3975-2.4721h-1.8455v5.18Z" transform="translate(-470.1732 -347.6591)"/><path class="cls-1" d="M835.1142,388.4012v-8.3431h2.6629v8.5431c0,3.2354,1.2215,4.2988,3.0392,4.2988,1.8365,0,3.1039-1.0634,3.1039-4.2988v-8.5431h2.562v8.3431c0,4.8806-2.1856,6.7891-5.6659,6.7891S835.1142,393.2818,835.1142,388.4012Z" transform="translate(-470.1732 -347.6591)"/><path class="cls-1" d="M853.2559,382.2758h-4.3345v-2.2177h11.3312v2.2177h-4.3339v12.6419h-2.6628Z" transform="translate(-470.1732 -347.6591)"/><path class="cls-1" d="M862.7609,380.0581h2.6629v14.86h-2.6629Z" transform="translate(-470.1732 -347.6591)"/><path class="cls-1" d="M869.2352,380.0581h2.7359l4.665,8.3524,1.5519,3.1717h.0918c-.1287-1.5358-.34-3.4172-.34-5.0713v-6.4528h2.5342v14.86h-2.736l-4.6649-8.3659-1.5519-3.1582h-.0919c.1287,1.5722.34,3.3627.34,5.0169v6.5072h-2.5342Z" transform="translate(-470.1732 -347.6591)"/><path class="cls-1" d="M883.506,387.5378c0-4.8623,3.113-7.7524,7.1073-7.7524a6.2023,6.2023,0,0,1,4.5363,1.8814l-1.4233,1.7a4.0819,4.0819,0,0,0-3.03-1.2906c-2.6629,0-4.4535,2.0449-4.4535,5.38,0,3.39,1.5889,5.4438,4.6,5.4438a3.3853,3.3853,0,0,0,2.14-.6545v-3.2081h-2.8285v-2.163H895.37v6.5526a6.8629,6.8629,0,0,1-4.7936,1.7633C886.5272,395.19,883.506,392.4548,883.506,387.5378Z" transform="translate(-470.1732 -347.6591)"/><path class="cls-1" d="M775.9905,414.8067c0-4.8624,3.0761-7.7524,6.8778-7.7524a5.9936,5.9936,0,0,1,4.3247,1.8813l-1.4232,1.7a3.9364,3.9364,0,0,0-2.8466-1.2906c-2.4424,0-4.1961,2.0449-4.1961,5.38,0,3.39,1.616,5.4438,4.1321,5.4438a4.2421,4.2421,0,0,0,3.2048-1.5268l1.4233,1.6542a6.0144,6.0144,0,0,1-4.729,2.163C778.9845,422.4592,775.9905,419.7237,775.9905,414.8067Z" transform="translate(-470.1732 -347.6591)"/><path class="cls-1" d="M790.0047,407.3269h2.6629v12.6419h6.2343v2.2177h-8.8972Z" transform="translate(-470.1732 -347.6591)"/><path class="cls-1" d="M800.0284,414.6975c0-4.8076,2.7088-7.6432,6.621-7.6432s6.62,2.8491,6.62,7.6432c0,4.8079-2.7088,7.7617-6.62,7.7617S800.0284,419.5054,800.0284,414.6975Zm10.5047,0c0-3.3352-1.5241-5.3529-3.8837-5.3529s-3.8844,2.0177-3.8844,5.3529,1.5241,5.4713,3.8844,5.4713S810.5331,418.033,810.5331,414.6975Z" transform="translate(-470.1732 -347.6591)"/><path class="cls-1" d="M816.2191,415.67v-8.3432h2.6629V415.87c0,3.2353,1.2215,4.2987,3.0393,4.2987,1.8364,0,3.1039-1.0634,3.1039-4.2987v-8.5432h2.562V415.67c0,4.88-2.1857,6.7891-5.6659,6.7891S816.2191,420.5506,816.2191,415.67Z" transform="translate(-470.1732 -347.6591)"/><path class="cls-1" d="M831.3306,407.3269h4.0034c4.6,0,7.3181,2.4539,7.3181,7.3706s-2.7178,7.489-7.18,7.489h-4.1412Zm3.8288,12.7238c3.0212,0,4.7568-1.7,4.7568-5.3532s-1.7356-5.2348-4.7568-5.2348h-1.1659v10.588Z" transform="translate(-470.1732 -347.6591)"/><polygon class="cls-1" points="83.154 1.402 63.817 1.402 82.881 75.07 102.137 75.07 83.154 1.402"/><polygon class="cls-1" points="138.544 1.402 157.881 1.402 138.818 75.07 119.561 75.07 138.544 1.402"/><polygon class="cls-1" points="58.615 1.402 0 1.402 0 17.595 20.077 17.595 20.077 75.07 39.193 75.07 39.193 17.595 58.615 17.595 58.615 1.402"/><polygon class="cls-1" points="100.726 1.398 82.913 75.07 83.852 75.07 102.009 1.398 100.726 1.398"/><polygon class="cls-1" points="118.965 1.398 101.152 75.07 102.092 75.07 120.249 1.398 118.965 1.398"/><polygon class="cls-1" points="103.331 1.398 85.519 75.07 86.458 75.07 104.615 1.398 103.331 1.398"/><polygon class="cls-1" points="105.937 1.398 88.124 75.07 89.064 75.07 107.221 1.398 105.937 1.398"/><polygon class="cls-1" points="108.542 1.398 90.73 75.07 91.669 75.07 109.826 1.398 108.542 1.398"/><polygon class="cls-1" points="111.148 1.398 93.336 75.07 94.275 75.07 112.432 1.398 111.148 1.398"/><polygon class="cls-1" points="113.754 1.398 95.941 75.07 96.88 75.07 115.037 1.398 113.754 1.398"/><polygon class="cls-1" points="116.359 1.398 98.547 75.07 99.486 75.07 117.643 1.398 116.359 1.398"/><line class="cls-1" x1="119.636" y1="75.0701" x2="120.9198" y2="75.0701"/><line class="cls-1" x1="137.8751" y1="75.0701" x2="139.1589" y2="75.0701"/><line class="cls-1" x1="122.2416" y1="75.0701" x2="123.5254" y2="75.0701"/><line class="cls-1" x1="124.8472" y1="75.0701" x2="126.131" y2="75.0701"/><line class="cls-1" x1="127.4528" y1="75.0701" x2="128.7366" y2="75.0701"/><line class="cls-1" x1="130.0584" y1="75.0701" x2="131.3422" y2="75.0701"/><line class="cls-1" x1="132.664" y1="75.0701" x2="133.9477" y2="75.0701"/><line class="cls-1" x1="135.2696" y1="75.0701" x2="136.5533" y2="75.0701"/><polygon class="cls-1" points="118.965 1.398 137.815 75.07 138.754 75.07 120.249 1.398 118.965 1.398"/><polygon class="cls-1" points="100.726 1.398 119.576 75.07 120.515 75.07 102.009 1.398 100.726 1.398"/><polygon class="cls-1" points="116.359 1.398 135.209 75.07 136.148 75.07 117.643 1.398 116.359 1.398"/><polygon class="cls-1" points="113.754 1.398 132.604 75.07 133.543 75.07 115.037 1.398 113.754 1.398"/><polygon class="cls-1" points="111.148 1.398 129.998 75.07 130.937 75.07 112.432 1.398 111.148 1.398"/><polygon class="cls-1" points="108.542 1.398 127.392 75.07 128.332 75.07 109.826 1.398 108.542 1.398"/><polygon class="cls-1" points="105.937 1.398 124.787 75.07 125.726 75.07 107.221 1.398 105.937 1.398"/><polygon class="cls-1" points="103.331 1.398 122.181 75.07 123.12 75.07 104.615 1.398 103.331 1.398"/><path class="cls-2" d="M737.1616,403.9586a17.9377,17.9377,0,0,0,15.6045-9.2508l-15.6045-9.2365Z" transform="translate(-470.1732 -347.6591)"/><path class="cls-2" d="M752.7661,394.7078a18.7832,18.7832,0,0,0,0-18.473l-15.6045,9.2365Z" transform="translate(-470.1732 -347.6591)"/><path class="cls-2" d="M737.1616,366.9841v18.4872l15.6045-9.2365A17.9378,17.9378,0,0,0,737.1616,366.9841Z" transform="translate(-470.1732 -347.6591)"/><path class="cls-1" d="M737.249,366.2709h0l-.0873-18.4777h0a36.9215,36.9215,0,0,0-32.0845,18.8495,38.2255,38.2255,0,0,0,0,37.69,36.9215,36.9215,0,0,0,32.0845,18.85h0l-.0557-18.5763h0a18.867,18.867,0,0,1-16.067-9.6577,19.7706,19.7706,0,0,1-.0954-18.8226C724.1179,370.5453,729.5254,366.2216,737.249,366.2709Z" transform="translate(-470.1732 -347.6591)"/><path class="cls-3" d="M754.08,395.0475a19.1485,19.1485,0,0,1-16.774,10.0446,19.6251,19.6251,0,0,1,0-39.2416,19.1622,19.1622,0,0,1,16.9627,10.3969" transform="translate(-470.1732 -347.6591)"/><path class="cls-3" d="M756.1991,396.2426a21.5612,21.5612,0,0,1-18.8933,11.3213,22.0975,22.0975,0,0,1,0-44.1852,21.57,21.57,0,0,1,19.0232,11.562" transform="translate(-470.1732 -347.6591)"/><path class="cls-3" d="M758.2022,397.4257a23.8657,23.8657,0,0,1-20.8964,12.5006,24.46,24.46,0,0,1,0-48.91A23.8769,23.8769,0,0,1,758.3607,373.81" transform="translate(-470.1732 -347.6591)"/><path class="cls-3" d="M760.2258,398.5714a26.1713,26.1713,0,0,1-22.92,13.7172c-14.5036,0-26.2611-12.0065-26.2611-26.8173s11.7575-26.8173,26.2611-26.8173a26.1815,26.1815,0,0,1,23.0606,13.9765" transform="translate(-470.1732 -347.6591)"/><path class="cls-3" d="M762.3664,399.7724a28.6056,28.6056,0,0,1-25.0606,15.01c-15.8523,0-28.703-13.123-28.703-29.311s12.8507-29.3109,28.703-29.3109a28.613,28.613,0,0,1,25.1671,15.2058" transform="translate(-470.1732 -347.6591)"/><path class="cls-3" d="M764.598,401.0761a31.1663,31.1663,0,0,1-27.2922,16.331c-17.2719,0-31.2735-14.2981-31.2735-31.9358s14.0016-31.9358,31.2735-31.9358a31.1749,31.1749,0,0,1,27.41,16.548" transform="translate(-470.1732 -347.6591)"/><path class="cls-3" d="M766.8532,402.4644a33.7861,33.7861,0,0,1-29.5474,17.63c-18.7252,0-33.9051-15.5013-33.9051-34.6231s15.18-34.6231,33.9051-34.6231a33.7953,33.7953,0,0,1,29.6776,17.8679" transform="translate(-470.1732 -347.6591)"/><path class="cls-3" d="M769.1576,403.7761a36.4148,36.4148,0,0,1-31.8518,19.012c-20.182,0-36.5428-16.7073-36.5428-37.3168s16.3608-37.3168,36.5428-37.3168a36.422,36.422,0,0,1,31.95,19.1911" transform="translate(-470.1732 -347.6591)"/><line class="cls-2" x1="194.8788" y1="37.8329" x2="194.8788" y2="56.3202"/><path class="cls-2" d="M665.0521,385.492" transform="translate(-470.1732 -347.6591)"/><line class="cls-2" x1="194.8788" y1="19.3457" x2="194.8788" y2="37.8329"/><path class="cls-3" d="M665.1962,405.1128a19.6252,19.6252,0,0,1,0-39.2417" transform="translate(-470.1732 -347.6591)"/><path class="cls-3" d="M665.1962,407.5846a22.0975,22.0975,0,0,1,0-44.1852" transform="translate(-470.1732 -347.6591)"/><path class="cls-3" d="M665.1962,409.9469a24.46,24.46,0,0,1,0-48.91" transform="translate(-470.1732 -347.6591)"/><path class="cls-3" d="M665.1962,412.3093c-14.5036,0-26.2611-12.0065-26.2611-26.8173s11.7575-26.8174,26.2611-26.8174" transform="translate(-470.1732 -347.6591)"/><path class="cls-3" d="M665.1962,414.8029c-15.8522,0-28.703-13.1229-28.703-29.3109s12.8508-29.311,28.703-29.311" transform="translate(-470.1732 -347.6591)"/><path class="cls-3" d="M665.1962,417.4278c-17.2718,0-31.2734-14.2982-31.2734-31.9358s14.0016-31.9358,31.2734-31.9358" transform="translate(-470.1732 -347.6591)"/><path class="cls-3" d="M665.1962,420.1151c-18.7252,0-33.905-15.5013-33.905-34.6231s15.18-34.6232,33.905-34.6232" transform="translate(-470.1732 -347.6591)"/><path class="cls-3" d="M665.1962,422.8088c-20.182,0-36.5428-16.7073-36.5428-37.3168s16.3608-37.3168,36.5428-37.3168" transform="translate(-470.1732 -347.6591)"/><path class="cls-1" d="M665.1633,404.6144l.0238,18.6994c14.8088-.2956,26.079-7.3911,32.3723-18.97l-16.1623-9.5592C678.243,400.3568,671.9136,404.6144,665.1633,404.6144Z" transform="translate(-470.1732 -347.6591)"/><path class="cls-1" d="M682.0516,376.6347l16.3054-9.362c-6.198-11.0374-19.6215-19.6111-33.2477-19.6111l.07,18.7082A18.707,18.707,0,0,1,682.0516,376.6347Z" transform="translate(-470.1732 -347.6591)"/></svg>